<?xml version="1.0" standalone="no"?><!DOCTYPE svg PUBLIC "-//W3C//DTD SVG 1.1//EN" "http://www.w3.org/Graphics/SVG/1.1/DTD/svg11.dtd"><svg t="1562117814411" class="icon" viewBox="0 0 1024 1024" version="1.1" xmlns="http://www.w3.org/2000/svg" p-id="2573" xmlns:xlink="http://www.w3.org/1999/xlink" width="30" height="30"><defs><style type="text/css"></style></defs><path d="M841.922263 0.062362l-45.439959 0-0.06144 0-113.756058 0-5.749755 0c0 0.12288-11.34591-0.13824-11.34591 0-22.46654 2.749438-51.184594 8.765432-51.184594 51.189714 0 39.203805 28.718054 48.424916 51.184594 51.199954 0 0.06144 0 0.03072 0 0l153.599862 0c50.186195 0 102.405028 52.234193 102.405028 102.379428l0 614.409687c0 50.191315-52.218833 102.379428-102.405028 102.379428L204.800276 921.620572c-50.170835 0-102.394788-52.188113-102.394788-102.379428L102.405489 204.831457c0-50.140115 52.218833-102.379428 102.394788-102.379428l153.610102 0C358.144138 104.863547 409.600092 90.45588 409.600092 51.252075c0-37.626846-28.769254-48.440276-51.189714-51.189714 0-0.10752 0-0.06144 0 0L182.052137 0.062362l-0.12288 0C81.561987 0.123801 0.000461 81.721168 0.000461 182.083318l0 659.911086C0.000461 942.377033 81.623427 1024 182.052137 1024l659.870126 0c100.43383 0 182.067036-81.622967 182.067036-182.005596L1023.989299 182.083318C1023.984179 81.690448 942.356093 0.062362 841.922263 0.062362M331.146403 357.66332c20.705261-15.201266 34.268129-40.284124 34.268129-68.674498 0-46.376918-36.065248-84.003764-80.547768-84.003764-44.49788 0-80.532408 37.626846-80.532408 84.003764 0 33.59229 21.406701 58.439627 46.294998 76.001212 0 218.593083 158.750577 249.441056 261.380885 249.441056 104.186786 0 261.345045-27.627495 261.345045-249.441056 24.872938-17.561584 46.315478-42.408922 46.315478-76.001212 0-46.376918-36.065248-84.003764-80.506808-84.003764-44.49788 0-80.558007 37.626846-80.558007 84.003764 0 28.390374 13.532148 53.468112 34.247649 68.674498-31.063012 175.687522-131.066762 154.378101-180.848477 154.378101C463.554604 512.041421 362.209415 533.350842 331.146403 357.66332" p-id="2574"></path></svg>